<?xml version="1.0" encoding="UTF-8"?>
<svg width="32px" height="32px" viewBox="0 0 32 32" version="1.1" xmlns="http://www.w3.org/2000/svg" xmlns:xlink="http://www.w3.org/1999/xlink">
    <!-- Generator: Sketch 54.1 (76490) - https://sketchapp.com -->
    <title>行业@3x</title>
    <desc>Created with Sketch.</desc>
    <g id="消息" stroke="none" stroke-width="1" fill="none" fill-rule="evenodd">
        <g id="信息icon" transform="translate(-405.000000, -184.000000)">
            <g id="行业" transform="translate(405.000000, 184.000000)">
                <g id="编组-12复制" fill="#88BEFF">
                    <rect id="矩形复制-7" x="0" y="0" width="32" height="32" rx="16"></rect>
                </g>
                <g id="编组-15" transform="translate(7.000000, 6.000000)" stroke="#FFFFFF" stroke-width="2">
                    <path d="M3,4 C1.8954305,4 1,4.8954305 1,6 L1,15 C1,16.1045695 1.8954305,17 3,17 L15,17 C16.1045695,17 17,16.1045695 17,15 L17,6 C17,4.8954305 16.1045695,4 15,4 L3,4 Z" id="矩形"></path>
                    <path d="M1,8 L1,8 C6.15796144,9.93423554 11.8420386,9.93423554 17,8 L17,8" id="路径-11"></path>
                    <path d="M6,4 L12,4 L12,2 C12,1.44771525 11.5522847,1 11,1 L7,1 C6.44771525,1 6,1.44771525 6,2 L6,4 Z" id="矩形"></path>
                </g>
            </g>
        </g>
    </g>
</svg>